<svg width="48" height="48" viewBox="0 0 48 48" fill="none" xmlns="http://www.w3.org/2000/svg">
<path d="M32.13 17.99C32.2734 17.8517 32.3877 17.6863 32.4664 17.5033C32.5451 17.3203 32.5866 17.1235 32.5884 16.9244C32.5902 16.7252 32.5524 16.5277 32.477 16.3433C32.4017 16.1589 32.2904 15.9914 32.1496 15.8505C32.0089 15.7096 31.8414 15.5981 31.6571 15.5226C31.4728 15.4471 31.2753 15.409 31.0762 15.4107C30.877 15.4123 30.6801 15.4536 30.4971 15.5321C30.3141 15.6106 30.1485 15.7248 30.01 15.868L23.998 21.878L17.988 15.868C17.8507 15.7207 17.6851 15.6025 17.5011 15.5205C17.3171 15.4385 17.1185 15.3944 16.9171 15.3909C16.7157 15.3873 16.5156 15.4244 16.3288 15.4998C16.1421 15.5752 15.9724 15.6875 15.83 15.83C15.6875 15.9724 15.5752 16.1421 15.4998 16.3288C15.4244 16.5156 15.3873 16.7157 15.3909 16.9171C15.3944 17.1185 15.4385 17.3171 15.5205 17.5011C15.6025 17.6851 15.7207 17.8507 15.868 17.988L21.874 24L15.864 30.01C15.5991 30.2944 15.4548 30.6705 15.4617 31.0591C15.4685 31.4477 15.626 31.8185 15.9008 32.0933C16.1756 32.3681 16.5464 32.5255 16.935 32.5324C17.3236 32.5392 17.6997 32.395 17.984 32.13L23.998 26.12L30.008 32.132C30.2924 32.397 30.6685 32.5413 31.0571 32.5344C31.4457 32.5275 31.8165 32.3701 32.0913 32.0953C32.3661 31.8205 32.5235 31.4497 32.5304 31.0611C32.5372 30.6725 32.393 30.2964 32.128 30.012L26.122 24L32.13 17.99Z" fill="white"/>
</svg>
