<svg width="24" height="18" viewBox="0 0 24 18" fill="none" xmlns="http://www.w3.org/2000/svg">
<g id="ant-design:delete-outlined">
<path id="Vector" d="M8.76297 3.23438H8.58755C8.68403 3.23438 8.76297 3.17109 8.76297 3.09375V3.23438ZM8.76297 3.23438H15.4289V3.09375C15.4289 3.17109 15.5079 3.23438 15.6044 3.23438H15.4289V4.5H17.0077V3.09375C17.0077 2.47324 16.3784 1.96875 15.6044 1.96875H8.58755C7.8135 1.96875 7.18418 2.47324 7.18418 3.09375V4.5H8.76297V3.23438ZM19.8144 4.5H4.37746C3.98934 4.5 3.67578 4.75137 3.67578 5.0625V5.625C3.67578 5.70234 3.75472 5.76562 3.8512 5.76562H5.17562L5.71723 14.959C5.75232 15.5584 6.37067 16.0312 7.1184 16.0312H17.0735C17.8234 16.0312 18.4396 15.5602 18.4747 14.959L19.0163 5.76562H20.3407C20.4372 5.76562 20.5161 5.70234 20.5161 5.625V5.0625C20.5161 4.75137 20.2026 4.5 19.8144 4.5ZM16.9047 14.7656H7.28724L6.7566 5.76562H17.4353L16.9047 14.7656Z" fill="#8E8E8E"/>
</g>
</svg>
