<svg width="25" height="25" viewBox="0 0 25 25" fill="none" xmlns="http://www.w3.org/2000/svg">
<path d="M3.85938 17.6089V20.6489C3.85938 20.9289 4.07937 21.1489 4.35938 21.1489H7.39937C7.52938 21.1489 7.65937 21.0989 7.74937 20.9989L18.6694 10.0889L14.9194 6.33893L4.00938 17.2489C3.90938 17.3489 3.85938 17.4689 3.85938 17.6089ZM21.5694 7.18893C21.6621 7.09642 21.7356 6.98653 21.7858 6.86555C21.836 6.74458 21.8618 6.6149 21.8618 6.48393C21.8618 6.35296 21.836 6.22328 21.7858 6.1023C21.7356 5.98133 21.6621 5.87144 21.5694 5.77893L19.2294 3.43893C19.1369 3.34622 19.027 3.27268 18.906 3.2225C18.785 3.17231 18.6553 3.14648 18.5244 3.14648C18.3934 3.14648 18.2637 3.17231 18.1427 3.2225C18.0218 3.27268 17.9119 3.34622 17.8194 3.43893L15.9894 5.26893L19.7394 9.01893L21.5694 7.18893Z" fill="white"/>
</svg>
