<svg width="80" height="80" viewBox="0 0 80 80" fill="none" xmlns="http://www.w3.org/2000/svg">
<circle cx="40" cy="40" r="40" fill="#FFE9E9"/>
<path d="M40.5026 24.6905C49.0172 24.6905 55.9193 31.7249 55.9193 40.4028C55.9193 49.0807 49.0172 56.1151 40.5026 56.1151C31.988 56.1151 25.0859 49.0807 25.0859 40.4028C25.0859 31.7249 31.988 24.6905 40.5026 24.6905ZM40.5026 27.833C37.2316 27.833 34.0946 29.1573 31.7816 31.5146C29.4687 33.8719 28.1693 37.0691 28.1693 40.4028C28.1693 43.7366 29.4687 46.9337 31.7816 49.291C34.0946 51.6483 37.2316 52.9727 40.5026 52.9727C43.7736 52.9727 46.9106 51.6483 49.2236 49.291C51.5365 46.9337 52.8359 43.7366 52.8359 40.4028C52.8359 37.0691 51.5365 33.8719 49.2236 31.5146C46.9106 29.1573 43.7736 27.833 40.5026 27.833ZM40.5026 45.1165C40.9115 45.1165 41.3036 45.2821 41.5927 45.5767C41.8818 45.8714 42.0443 46.271 42.0443 46.6877C42.0443 47.1045 41.8818 47.5041 41.5927 47.7988C41.3036 48.0934 40.9115 48.259 40.5026 48.259C40.0937 48.259 39.7016 48.0934 39.4125 47.7988C39.1234 47.5041 38.9609 47.1045 38.9609 46.6877C38.9609 46.271 39.1234 45.8714 39.4125 45.5767C39.7016 45.2821 40.0937 45.1165 40.5026 45.1165ZM40.5026 30.9755C40.9115 30.9755 41.3036 31.141 41.5927 31.4357C41.8818 31.7303 42.0443 32.13 42.0443 32.5467V41.9741C42.0443 42.3908 41.8818 42.7904 41.5927 43.0851C41.3036 43.3797 40.9115 43.5453 40.5026 43.5453C40.0937 43.5453 39.7016 43.3797 39.4125 43.0851C39.1234 42.7904 38.9609 42.3908 38.9609 41.9741V32.5467C38.9609 32.13 39.1234 31.7303 39.4125 31.4357C39.7016 31.141 40.0937 30.9755 40.5026 30.9755Z" fill="#E64646"/>
</svg>
