<svg width="73" height="73" viewBox="0 0 73 73" fill="none" xmlns="http://www.w3.org/2000/svg">
<g id="mingcute:pdf-fill" clip-path="url(#clip0_414_2179)">
<g id="Group">
<path id="Vector" fill-rule="evenodd" clip-rule="evenodd" d="M36.5013 6.08325V25.8541C36.5013 27.0641 36.982 28.2246 37.8376 29.0803C38.6933 29.9359 39.8538 30.4166 41.0638 30.4166H60.8346V60.8332C60.8346 62.4466 60.1937 63.994 59.0529 65.1348C57.912 66.2757 56.3647 66.9166 54.7513 66.9166H18.2513C16.6379 66.9166 15.0906 66.2757 13.9497 65.1348C12.8089 63.994 12.168 62.4466 12.168 60.8332V12.1666C12.168 10.5532 12.8089 9.00586 13.9497 7.86502C15.0906 6.72417 16.6379 6.08325 18.2513 6.08325H36.5013ZM33.4931 36.0376C32.7644 40.67 30.3419 44.867 26.695 47.8149C23.997 49.9928 26.4638 54.2663 29.7001 53.0222C34.0767 51.3376 38.9228 51.3376 43.2994 53.0222C46.5358 54.2693 49.0026 49.9958 46.3046 47.8149C42.6579 44.8668 40.2354 40.6699 39.5065 36.0376C38.9681 32.6127 34.0315 32.6096 33.4931 36.0376ZM36.5013 43.5049L38.9529 47.745H34.0558L36.5013 43.5049ZM42.5846 6.21404C43.7371 6.45846 44.7937 7.03223 45.6263 7.86567L59.0522 21.2916C59.8857 22.1242 60.4594 23.1808 60.7038 24.3333H42.5846V6.21404Z" fill="#B9B9B9"/>
</g>
</g>
<defs>
<clipPath id="clip0_414_2179">
<rect width="73" height="73" fill="white"/>
</clipPath>
</defs>
</svg>
