<svg width="49" height="49" viewBox="0 0 49 49" fill="none" xmlns="http://www.w3.org/2000/svg">
<g id="mingcute:pdf-fill" clip-path="url(#clip0_414_2192)">
<g id="Group">
<path id="Vector" fill-rule="evenodd" clip-rule="evenodd" d="M24.5013 4.08325V17.3541C24.5013 18.1663 24.824 18.9453 25.3983 19.5196C25.9726 20.0939 26.7516 20.4166 27.5638 20.4166H40.8346V40.8332C40.8346 41.9162 40.4044 42.9548 39.6387 43.7206C38.8729 44.4864 37.8343 44.9166 36.7513 44.9166H12.2513C11.1683 44.9166 10.1297 44.4864 9.36395 43.7206C8.59818 42.9548 8.16797 41.9162 8.16797 40.8332V8.16658C8.16797 7.08362 8.59818 6.04501 9.36395 5.27923C10.1297 4.51346 11.1683 4.08325 12.2513 4.08325H24.5013ZM22.4821 24.1896C21.993 27.299 20.3669 30.1161 17.919 32.0949C16.108 33.5567 17.7638 36.4253 19.9361 35.5902C22.8738 34.4594 26.1267 34.4594 29.0644 35.5902C31.2368 36.4273 32.8926 33.5588 31.0816 32.0949C28.6338 30.116 27.0078 27.299 26.5185 24.1896C26.1571 21.8907 22.8435 21.8886 22.4821 24.1896ZM24.5013 29.2019L26.1469 32.048H22.8598L24.5013 29.2019ZM28.5846 4.17104C29.3582 4.3351 30.0674 4.72023 30.6263 5.27967L39.6382 14.2916C40.1977 14.8504 40.5828 15.5597 40.7468 16.3333H28.5846V4.17104Z" fill="url(#paint0_linear_414_2192)"/>
</g>
</g>
<defs>
<linearGradient id="paint0_linear_414_2192" x1="52.6068" y1="24.4999" x2="8.16797" y2="24.4999" gradientUnits="userSpaceOnUse">
<stop stop-color="#211AEB"/>
<stop offset="1" stop-color="#7C36FE"/>
</linearGradient>
<clipPath id="clip0_414_2192">
<rect width="49" height="49" fill="white"/>
</clipPath>
</defs>
</svg>
