<svg width="65" height="65" viewBox="0 0 65 65" fill="none" xmlns="http://www.w3.org/2000/svg">
<g filter="url(#filter0_d_212_4994)">
<rect x="10" y="9" width="45" height="45" rx="8" fill="white"/>
</g>
<path d="M21.7637 32C21.7637 29.3478 22.8087 26.8043 24.6687 24.9289C26.5288 23.0536 29.0516 22 31.6821 22C34.3127 22 36.8355 23.0536 38.6956 24.9289C40.5556 26.8043 41.6006 29.3478 41.6006 32V38.3625C41.6006 39.4225 41.6006 39.95 41.4444 40.3737C41.3202 40.7095 41.1258 41.0145 40.8745 41.2679C40.6231 41.5213 40.3207 41.7173 39.9876 41.8425C39.5673 42 39.0429 42 37.9928 42H31.6821C29.0516 42 26.5288 40.9464 24.6687 39.0711C22.8087 37.1957 21.7637 34.6522 21.7637 32Z" stroke="black" stroke-width="2"/>
<path d="M27.9629 30.75H35.4017M31.6823 35.75H35.4017" stroke="black" stroke-width="2" stroke-linecap="round" stroke-linejoin="round"/>
<defs>
<filter id="filter0_d_212_4994" x="0.4" y="0.4" width="64.2" height="64.2" filterUnits="userSpaceOnUse" color-interpolation-filters="sRGB">
<feFlood flood-opacity="0" result="BackgroundImageFix"/>
<feColorMatrix in="SourceAlpha" type="matrix" values="0 0 0 0 0 0 0 0 0 0 0 0 0 0 0 0 0 0 127 0" result="hardAlpha"/>
<feOffset dy="1"/>
<feGaussianBlur stdDeviation="4.8"/>
<feComposite in2="hardAlpha" operator="out"/>
<feColorMatrix type="matrix" values="0 0 0 0 0 0 0 0 0 0 0 0 0 0 0 0 0 0 0.08 0"/>
<feBlend mode="normal" in2="BackgroundImageFix" result="effect1_dropShadow_212_4994"/>
<feBlend mode="normal" in="SourceGraphic" in2="effect1_dropShadow_212_4994" result="shape"/>
</filter>
</defs>
</svg>
