<svg width="65" height="65" viewBox="0 0 65 65" fill="none" xmlns="http://www.w3.org/2000/svg">
<g filter="url(#filter0_d_212_4963)">
<rect x="10" y="9" width="45" height="45" rx="8" fill="white"/>
</g>
<path d="M36.2977 23.2569C37.7862 21.7499 39.9639 21.7185 41.169 22.9388C42.3772 24.1611 42.345 26.3714 40.8545 27.8784L38.3394 30.4245C38.1978 30.5728 38.1196 30.7712 38.1217 30.977C38.1237 31.1828 38.2059 31.3795 38.3504 31.5248C38.495 31.6702 38.6904 31.7524 38.8945 31.7539C39.0986 31.7554 39.2952 31.676 39.4418 31.5328L41.9579 28.9866C43.9415 26.9784 44.1906 23.7729 42.2724 21.8305C40.3521 19.8871 37.179 20.1404 35.1933 22.1487L30.1632 27.2421C28.1796 29.2503 27.9305 32.4558 29.8487 34.3971C29.9203 34.4722 30.0061 34.5322 30.101 34.5736C30.1958 34.6149 30.2979 34.6368 30.4013 34.6379C30.5047 34.6391 30.6072 34.6195 30.703 34.5802C30.7987 34.541 30.8858 34.4829 30.959 34.4094C31.0323 34.3359 31.0903 34.2484 31.1296 34.1521C31.169 34.0557 31.189 33.9524 31.1883 33.8482C31.1877 33.744 31.1664 33.6409 31.1259 33.5451C31.0853 33.4492 31.0262 33.3625 30.9521 33.2899C29.7439 32.0676 29.7771 29.8573 31.2666 28.3503L36.2977 23.2569Z" fill="black"/>
<path d="M35.0058 29.1039C34.8599 28.9564 34.6619 28.8733 34.4552 28.873C34.2486 28.8728 34.0503 28.9552 33.904 29.1023C33.7577 29.2494 33.6753 29.4491 33.675 29.6574C33.6747 29.8658 33.7565 30.0657 33.9024 30.2132C35.1107 31.4355 35.0785 33.6448 33.5879 35.1528L28.5568 40.2451C27.0673 41.7521 24.8896 41.7835 23.6845 40.5633C22.4763 39.341 22.5095 37.1307 23.999 35.6237L26.5151 33.0775C26.5873 33.0045 26.6445 32.9178 26.6834 32.8225C26.7224 32.7272 26.7423 32.625 26.7421 32.5219C26.7419 32.4188 26.7216 32.3168 26.6823 32.2216C26.643 32.1264 26.5855 32.04 26.513 31.9672C26.4406 31.8944 26.3546 31.8367 26.26 31.7975C26.1655 31.7582 26.0642 31.7381 25.9619 31.7383C25.8597 31.7385 25.7584 31.759 25.664 31.7986C25.5696 31.8382 25.4839 31.8962 25.4117 31.9693L22.8956 34.5155C20.912 36.5248 20.6629 39.7292 22.5811 41.6716C24.5014 43.616 27.6745 43.3617 29.6602 41.3534L34.6913 36.26C36.6749 34.2528 36.924 31.0452 35.0058 29.1039Z" fill="black"/>
<defs>
<filter id="filter0_d_212_4963" x="0.4" y="0.4" width="64.2" height="64.2" filterUnits="userSpaceOnUse" color-interpolation-filters="sRGB">
<feFlood flood-opacity="0" result="BackgroundImageFix"/>
<feColorMatrix in="SourceAlpha" type="matrix" values="0 0 0 0 0 0 0 0 0 0 0 0 0 0 0 0 0 0 127 0" result="hardAlpha"/>
<feOffset dy="1"/>
<feGaussianBlur stdDeviation="4.8"/>
<feComposite in2="hardAlpha" operator="out"/>
<feColorMatrix type="matrix" values="0 0 0 0 0 0 0 0 0 0 0 0 0 0 0 0 0 0 0.08 0"/>
<feBlend mode="normal" in2="BackgroundImageFix" result="effect1_dropShadow_212_4963"/>
<feBlend mode="normal" in="SourceGraphic" in2="effect1_dropShadow_212_4963" result="shape"/>
</filter>
</defs>
</svg>
