<svg width="65" height="65" viewBox="0 0 65 65" fill="none" xmlns="http://www.w3.org/2000/svg">
<g filter="url(#filter0_d_212_5016)">
<rect x="10" y="9" width="45" height="45" rx="8" fill="white"/>
</g>
<path fill-rule="evenodd" clip-rule="evenodd" d="M42.4781 26.6743L41.7073 25.3257C41.0552 24.1846 39.6101 23.791 38.4768 24.4457C37.9373 24.7661 37.2935 24.857 36.6875 24.6984C36.0814 24.5397 35.5629 24.1446 35.2462 23.6C35.0424 23.2539 34.9329 22.8596 34.9288 22.4571C34.9472 21.8119 34.7057 21.1866 34.2594 20.7237C33.8131 20.2608 33.2 19.9997 32.5597 20H31.0067C30.3794 20 29.778 20.252 29.3355 20.7003C28.893 21.1486 28.6459 21.7561 28.649 22.3886C28.6304 23.6943 27.5751 24.743 26.2799 24.7429C25.8807 24.7387 25.4896 24.6283 25.1463 24.4229C24.013 23.7681 22.5678 24.1618 21.9157 25.3029L21.0882 26.6743C20.4369 27.814 20.8221 29.2701 21.9497 29.9314C22.6827 30.3581 23.1343 31.1466 23.1343 32C23.1343 32.8534 22.6827 33.6419 21.9497 34.0686C20.8235 34.7255 20.4379 36.1781 21.0882 37.3143L21.8704 38.6743C22.1759 39.2301 22.6886 39.6403 23.2949 39.814C23.9012 39.9878 24.5512 39.9107 25.101 39.6C25.6415 39.282 26.2856 39.1949 26.8901 39.358C27.4946 39.5211 28.0095 39.9209 28.3202 40.4686C28.524 40.8147 28.6335 41.2089 28.6376 41.6114C28.6376 42.9306 29.6983 44 31.0067 44H32.5597C33.8637 44 34.9225 42.9376 34.9288 41.6229C34.9257 40.9884 35.1744 40.3791 35.6193 39.9305C36.0643 39.4819 36.6686 39.2312 37.2979 39.2343C37.6961 39.245 38.0855 39.355 38.4314 39.5543C39.5618 40.211 41.006 39.8227 41.662 38.6857L42.4781 37.3143C42.7941 36.7676 42.8808 36.1165 42.7191 35.5051C42.5574 34.8938 42.1606 34.3727 41.6167 34.0571C41.0727 33.7416 40.6759 33.2205 40.5142 32.6092C40.3526 31.9978 40.4393 31.3467 40.7552 30.8C40.9606 30.4384 41.258 30.1386 41.6167 29.9314C42.7376 29.2704 43.1218 27.8228 42.4781 26.6857V26.6743Z" stroke="black" stroke-width="1.5" stroke-linecap="round" stroke-linejoin="round"/>
<path d="M31.7841 35.2899C33.5871 35.2899 35.0487 33.8163 35.0487 31.9985C35.0487 30.1807 33.5871 28.707 31.7841 28.707C29.9811 28.707 28.5195 30.1807 28.5195 31.9985C28.5195 33.8163 29.9811 35.2899 31.7841 35.2899Z" stroke="black" stroke-width="1.5" stroke-linecap="round" stroke-linejoin="round"/>
<defs>
<filter id="filter0_d_212_5016" x="0.4" y="0.4" width="64.2" height="64.2" filterUnits="userSpaceOnUse" color-interpolation-filters="sRGB">
<feFlood flood-opacity="0" result="BackgroundImageFix"/>
<feColorMatrix in="SourceAlpha" type="matrix" values="0 0 0 0 0 0 0 0 0 0 0 0 0 0 0 0 0 0 127 0" result="hardAlpha"/>
<feOffset dy="1"/>
<feGaussianBlur stdDeviation="4.8"/>
<feComposite in2="hardAlpha" operator="out"/>
<feColorMatrix type="matrix" values="0 0 0 0 0 0 0 0 0 0 0 0 0 0 0 0 0 0 0.08 0"/>
<feBlend mode="normal" in2="BackgroundImageFix" result="effect1_dropShadow_212_5016"/>
<feBlend mode="normal" in="SourceGraphic" in2="effect1_dropShadow_212_5016" result="shape"/>
</filter>
</defs>
</svg>
