<svg width="65" height="65" viewBox="0 0 65 65" fill="none" xmlns="http://www.w3.org/2000/svg">
<g filter="url(#filter0_d_212_4987)">
<rect x="10" y="9" width="45" height="45" rx="8" fill="white"/>
</g>
<path fill-rule="evenodd" clip-rule="evenodd" d="M31.6817 33.4362L31.8155 33.4363L32.1146 33.4373C34.4013 33.4525 39.627 33.6854 39.627 37.2564C39.627 40.804 34.5835 41.0354 32.1503 41.0505L31.2488 41.0505C28.962 41.0353 23.7353 40.8027 23.7353 37.2361C23.7353 33.684 28.962 33.4524 31.2488 33.4373L31.548 33.4363C31.5944 33.4362 31.639 33.4362 31.6817 33.4362ZM31.6817 35.2275C28.8675 35.2275 25.5119 35.5762 25.5119 37.2361C25.5119 38.8585 28.6672 39.2378 31.4245 39.2593L31.6817 39.2602C34.496 39.2602 37.8503 38.9127 37.8503 37.2564C37.8503 35.5798 34.496 35.2275 31.6817 35.2275ZM41.1024 32.9516C43.9723 33.3851 44.5752 34.7441 44.5752 35.8081C44.5752 36.4577 44.3217 37.6436 42.6279 38.2944C42.5237 38.3338 42.4171 38.3529 42.3117 38.3529C41.954 38.3529 41.6164 38.1332 41.4814 37.7761C41.3061 37.314 41.537 36.7957 41.9954 36.6201C42.7985 36.3121 42.7985 35.9717 42.7985 35.8081C42.7985 35.2851 42.1387 34.9196 40.8382 34.7238C40.3538 34.6497 40.0186 34.1948 40.0908 33.704C40.1631 33.2143 40.6132 32.8883 41.1024 32.9516ZM23.2714 33.704C23.3437 34.1948 23.0085 34.6497 22.524 34.7238C21.2235 34.9196 20.5638 35.2851 20.5638 35.8081C20.5638 35.9717 20.5638 36.3109 21.368 36.6201C21.8264 36.7957 22.0574 37.314 21.8821 37.7761C21.747 38.1332 21.4095 38.3529 21.0518 38.3529C20.9464 38.3529 20.8398 38.3338 20.7355 38.2944C19.0406 37.6424 18.7871 36.4565 18.7871 35.8081C18.7871 34.7453 19.39 33.3851 22.2611 32.9516C22.7503 32.8895 23.198 33.2143 23.2714 33.704ZM31.6817 21C34.6665 21 37.0935 23.4481 37.0935 26.4562C37.0935 29.4644 34.6665 31.9124 31.6817 31.9124H31.6497C30.2047 31.9077 28.8509 31.3368 27.837 30.3051C26.8207 29.2745 26.2652 27.906 26.2711 26.4526C26.2711 23.4481 28.6981 21 31.6817 21ZM31.6817 22.7913C29.6776 22.7913 28.0478 24.4357 28.0478 26.4562C28.0443 27.4355 28.4162 28.3514 29.0973 29.0428C29.7783 29.7343 30.6856 30.1176 31.6521 30.1212L31.6817 31.0168V30.1212C33.6858 30.1212 35.3168 28.478 35.3168 26.4562C35.3168 24.4357 33.6858 22.7913 31.6817 22.7913ZM39.0123 22.1697C41.0945 22.5148 42.6071 24.3109 42.6071 26.4401C42.6023 28.5837 41.014 30.4227 38.9116 30.72C38.8701 30.726 38.8287 30.7284 38.7884 30.7284C38.3525 30.7284 37.9723 30.4048 37.9095 29.957C37.842 29.4662 38.1796 29.0136 38.6664 28.9455C39.8982 28.7711 40.828 27.694 40.8304 26.4377C40.8304 25.1922 39.9444 24.1389 38.7233 23.9371C38.24 23.8571 37.9119 23.3961 37.9913 22.9077C38.0718 22.4193 38.5255 22.0921 39.0123 22.1697ZM25.3722 22.9077C25.4515 23.3961 25.1234 23.8571 24.6402 23.9371C23.419 24.1389 22.533 25.1922 22.533 26.4401C22.5354 27.694 23.4652 28.7723 24.6958 28.9455C25.1827 29.0136 25.5202 29.4662 25.4527 29.957C25.3899 30.4048 25.0097 30.7284 24.5738 30.7284C24.5336 30.7284 24.4921 30.726 24.4507 30.72C22.3483 30.4227 20.7611 28.5837 20.7564 26.4425C20.7564 24.3109 22.2689 22.5148 24.3512 22.1697C24.8498 22.0909 25.2916 22.4217 25.3722 22.9077Z" fill="black"/>
<defs>
<filter id="filter0_d_212_4987" x="0.4" y="0.4" width="64.2" height="64.2" filterUnits="userSpaceOnUse" color-interpolation-filters="sRGB">
<feFlood flood-opacity="0" result="BackgroundImageFix"/>
<feColorMatrix in="SourceAlpha" type="matrix" values="0 0 0 0 0 0 0 0 0 0 0 0 0 0 0 0 0 0 127 0" result="hardAlpha"/>
<feOffset dy="1"/>
<feGaussianBlur stdDeviation="4.8"/>
<feComposite in2="hardAlpha" operator="out"/>
<feColorMatrix type="matrix" values="0 0 0 0 0 0 0 0 0 0 0 0 0 0 0 0 0 0 0.08 0"/>
<feBlend mode="normal" in2="BackgroundImageFix" result="effect1_dropShadow_212_4987"/>
<feBlend mode="normal" in="SourceGraphic" in2="effect1_dropShadow_212_4987" result="shape"/>
</filter>
</defs>
</svg>
