<svg width="50" height="40" viewBox="0 0 50 40" fill="none" xmlns="http://www.w3.org/2000/svg">
<path d="M39.5026 22.4141V17.5807H49.1693V22.4141H39.5026ZM42.4026 39.3307L34.6693 33.5307L37.5693 29.6641L45.3026 35.4641L42.4026 39.3307ZM37.5693 10.3307L34.6693 6.46406L42.4026 0.664062L45.3026 4.53073L37.5693 10.3307ZM8.08594 36.9141V27.2474H5.66927C4.3401 27.2474 3.20266 26.7745 2.25694 25.8288C1.31122 24.8831 0.837549 23.7448 0.835938 22.4141V17.5807C0.835938 16.2516 1.3096 15.1141 2.25694 14.1684C3.20427 13.2227 4.34172 12.749 5.66927 12.7474H15.3359L27.4193 5.4974V34.4974L15.3359 27.2474H12.9193V36.9141H8.08594ZM29.8359 28.0932V11.9016C30.9234 12.8682 31.7999 14.0468 32.4653 15.4371C33.1307 16.8275 33.4625 18.3476 33.4609 19.9974C33.4593 21.6472 33.1266 23.1681 32.4629 24.5601C31.7991 25.9521 30.9234 27.1298 29.8359 28.0932Z" fill="url(#paint0_linear_247_33349)"/>
<defs>
<linearGradient id="paint0_linear_247_33349" x1="66.5873" y1="19.9974" x2="0.835938" y2="19.9974" gradientUnits="userSpaceOnUse">
<stop stop-color="#211AEB"/>
<stop offset="1" stop-color="#7C36FE"/>
</linearGradient>
</defs>
</svg>
